PathFileType	4	(X/Y/Z)	 2.8Hzhigh3min.trc
DataRate	CameraRate	NumFrames	NumMarkers	Units	OrigDataRate	OrigDataStartFrame	OrigNumFrames
200	200	10	39	m	200	371	987
Frame#	Time	C7			LSH			RSH			MAN			RASI			LASI			HIPR			HIPL			RPSI			LPSI			COX			RTHI1			RTHI2			RTHI3			RTHI4			RLKN			RMKN			RSHA1			RSHA2			RSHA3			RSHA4			RHEEL			RMET5			RMET1			RTOE			LTHI1			LTHI2			LTHI3			LTHI4			LLKN			LMKN			LSHA1			LSHA2			LSHA3			LSHA4			LHEEL			LMET5			LMET1			LTOE			
		X1	Y1	Z1	X2	Y2	Z2	X3	Y3	Z3	X4	Y4	Z4	X5	Y5	Z5	X6	Y6	Z6	X7	Y7	Z7	X8	Y8	Z8	X9	Y9	Z9	X10	Y10	Z10	X11	Y11	Z11	X12	Y12	Z12	X13	Y13	Z13	X14	Y14	Z14	X15	Y15	Z15	X16	Y16	Z16	X17	Y17	Z17	X18	Y18	Z18	X19	Y19	Z19	X20	Y20	Z20	X21	Y21	Z21	X22	Y22	Z22	X23	Y23	Z23	X24	Y24	Z24	X25	Y25	Z25	X26	Y26	Z26	X27	Y27	Z27	X28	Y28	Z28	X29	Y29	Z29	X30	Y30	Z30	X31	Y31	Z31	X32	Y32	Z32	X33	Y33	Z33	X34	Y34	Z34	X35	Y35	Z35	X36	Y36	Z36	X37	Y37	Z37	X38	Y38	Z38	X39	Y39	Z39	
371	1.8550	-0.281341	1.464723	-0.501545	-0.258460	1.447548	-0.690024	-0.228591	1.443726	-0.324658	-0.129610	1.416187	-0.521073	-0.149008	0.946596	-0.402457	-0.150509	0.956623	-0.641538	-0.233885	1.011063	-0.349218	-0.230633	1.024704	-0.680366	-0.329333	0.999427	-0.482621	-0.328067	1.005229	-0.557307	-0.328385	1.000502	-0.518859	-0.241892	0.770824	-0.325142	-0.223994	0.715271	-0.315672	-0.162381	0.734558	-0.307474	-0.173901	0.794213	-0.317577	-0.186493	0.447613	-0.333786	-0.142866	0.440287	-0.449422	-0.273104	0.308778	-0.337369	-0.297527	0.275605	-0.352787	-0.244746	0.245765	-0.352638	-0.224160	0.279319	-0.342508	-0.389831	0.095633	-0.449901	-0.244151	0.033188	-0.360434	-0.185616	0.049716	-0.425580	-0.156300	0.036991	-0.423135	-0.249511	0.748145	-0.714595	-0.220030	0.695035	-0.726443	-0.164517	0.723602	-0.743739	-0.185864	0.779612	-0.734707	-0.169109	0.470917	-0.723692	-0.131608	0.456670	-0.605884	-0.293859	0.282402	-0.702090	-0.313716	0.249312	-0.689695	-0.259070	0.220477	-0.702691	-0.245945	0.260674	-0.714105	-0.389660	0.099232	-0.612591	-0.244445	0.036451	-0.707893	-0.188209	0.050010	-0.642214	-0.158429	0.036767	-0.649579	
372	1.8600	-0.281198	1.463433	-0.501699	-0.258354	1.446242	-0.690225	-0.228282	1.442620	-0.324807	-0.129539	1.414803	-0.521195	-0.149547	0.945018	-0.402083	-0.150799	0.954982	-0.641614	-0.235739	1.009428	-0.349207	-0.231501	1.023026	-0.680311	-0.329743	0.998232	-0.482817	-0.328379	1.003956	-0.557275	-0.328744	0.999199	-0.518917	-0.242886	0.769513	-0.325280	-0.224939	0.714017	-0.315667	-0.163416	0.733441	-0.306914	-0.175031	0.793082	-0.317142	-0.186503	0.446412	-0.333544	-0.141799	0.439155	-0.448719	-0.273308	0.307757	-0.337966	-0.297644	0.274723	-0.353355	-0.244903	0.244731	-0.353010	-0.224338	0.278245	-0.342755	-0.389668	0.094814	-0.451475	-0.244304	0.033249	-0.360730	-0.185384	0.049730	-0.425500	-0.156014	0.036990	-0.422866	-0.250332	0.746565	-0.714038	-0.220839	0.693490	-0.726026	-0.165522	0.722132	-0.743839	-0.186915	0.778128	-0.734738	-0.168631	0.469593	-0.723536	-0.130396	0.455659	-0.605966	-0.293667	0.281434	-0.700758	-0.313520	0.248422	-0.688205	-0.259007	0.219447	-0.701529	-0.245875	0.259602	-0.713066	-0.389309	0.098380	-0.610202	-0.244785	0.036528	-0.707167	-0.187888	0.049924	-0.642035	-0.158100	0.036773	-0.649790	
373	1.8650	-0.281068	1.462640	-0.501858	-0.258235	1.445439	-0.690448	-0.227983	1.442027	-0.324936	-0.129470	1.413959	-0.521314	-0.149948	0.944019	-0.401770	-0.151003	0.953976	-0.641573	-0.237056	1.008662	-0.349165	-0.232021	1.022312	-0.680278	-0.330035	0.997533	-0.482933	-0.328572	1.003236	-0.557275	-0.329015	0.998377	-0.518954	-0.243822	0.768684	-0.325455	-0.225883	0.713210	-0.315751	-0.164413	0.732699	-0.306482	-0.176078	0.792351	-0.316811	-0.186910	0.445601	-0.333474	-0.141142	0.438345	-0.448141	-0.273729	0.307042	-0.338518	-0.297968	0.274095	-0.353843	-0.245232	0.244016	-0.353315	-0.224701	0.277520	-0.342982	-0.389553	0.094154	-0.452683	-0.244430	0.033296	-0.360957	-0.185214	0.049751	-0.425427	-0.155802	0.036990	-0.422656	-0.251108	0.745485	-0.713506	-0.221617	0.692430	-0.725601	-0.166462	0.721123	-0.743856	-0.187879	0.777115	-0.734707	-0.168446	0.468675	-0.723307	-0.129481	0.454895	-0.606015	-0.293641	0.280762	-0.699502	-0.313464	0.247802	-0.686808	-0.259062	0.218739	-0.700469	-0.245960	0.258863	-0.712119	-0.388941	0.097757	-0.608127	-0.245085	0.036595	-0.706495	-0.187598	0.049856	-0.641876	-0.157817	0.036782	-0.649967	
374	1.8700	-0.280951	1.462355	-0.502007	-0.258113	1.445149	-0.690681	-0.227698	1.441949	-0.325059	-0.129394	1.413639	-0.521427	-0.150215	0.943608	-0.401535	-0.151110	0.953570	-0.641424	-0.237796	1.008679	-0.349096	-0.232165	1.022428	-0.680279	-0.330224	0.997299	-0.482981	-0.328652	1.003050	-0.557329	-0.329196	0.998052	-0.518986	-0.244679	0.768349	-0.325647	-0.226803	0.712859	-0.315908	-0.165360	0.732334	-0.306186	-0.177016	0.792035	-0.316595	-0.187655	0.445193	-0.333552	-0.140941	0.437897	-0.447724	-0.274326	0.306651	-0.338962	-0.298469	0.273742	-0.354235	-0.245713	0.243630	-0.353535	-0.225215	0.277158	-0.343156	-0.389480	0.093655	-0.453507	-0.244526	0.033328	-0.361107	-0.185109	0.049771	-0.425361	-0.155664	0.036993	-0.422504	-0.251799	0.744946	-0.713016	-0.222327	0.691892	-0.725189	-0.167289	0.720609	-0.743794	-0.188712	0.776602	-0.734616	-0.168580	0.468183	-0.723013	-0.128860	0.454402	-0.606039	-0.293779	0.280399	-0.698391	-0.313549	0.247456	-0.685579	-0.259228	0.218362	-0.699565	-0.246190	0.258478	-0.711298	-0.388579	0.097353	-0.606431	-0.245329	0.036656	-0.705925	-0.187358	0.049802	-0.641743	-0.157593	0.036790	-0.650104	
375	1.8750	-0.280852	1.462579	-0.502140	-0.257999	1.445372	-0.690910	-0.227432	1.442400	-0.325139	-0.129314	1.413837	-0.521533	-0.150351	0.943761	-0.401380	-0.151116	0.953725	-0.641188	-0.237984	1.009356	-0.349017	-0.231954	1.023228	-0.680328	-0.330318	0.997523	-0.482983	-0.328584	1.003362	-0.557456	-0.329242	0.998213	-0.519009	-0.245444	0.768510	-0.325849	-0.227683	0.712969	-0.316111	-0.166239	0.732350	-0.306031	-0.177813	0.792123	-0.316472	-0.188694	0.445219	-0.333742	-0.141256	0.437851	-0.447507	-0.275072	0.306594	-0.339293	-0.299122	0.273676	-0.354523	-0.246318	0.243605	-0.353673	-0.225862	0.277180	-0.343297	-0.389469	0.093350	-0.453962	-0.244589	0.033344	-0.361184	-0.185061	0.049789	-0.425303	-0.155597	0.036997	-0.422407	-0.252374	0.744973	-0.712587	-0.222939	0.691905	-0.724813	-0.167974	0.720614	-0.743657	-0.189369	0.776613	-0.734464	-0.169051	0.468157	-0.722668	-0.128548	0.454221	-0.606038	-0.294069	0.280351	-0.697481	-0.313761	0.247401	-0.684590	-0.259481	0.218340	-0.698858	-0.246532	0.258471	-0.710647	-0.388259	0.097182	-0.605185	-0.245508	0.036706	-0.705487	-0.187177	0.049764	-0.641640	-0.157436	0.036796	-0.650201	
376	1.8800	-0.280773	1.463310	-0.502257	-0.257901	1.446110	-0.691125	-0.227194	1.443367	-0.325203	-0.129242	1.414550	-0.521634	-0.150364	0.944468	-0.401301	-0.151021	0.954414	-0.640898	-0.237703	1.010570	-0.348935	-0.231419	1.024559	-0.680429	-0.330317	0.998202	-0.482958	-0.328411	1.004166	-0.557644	-0.329203	0.998883	-0.519048	-0.246103	0.769173	-0.326044	-0.228507	0.713562	-0.316354	-0.167015	0.732774	-0.306019	-0.178462	0.792633	-0.316445	-0.189944	0.445698	-0.333931	-0.142119	0.438242	-0.447514	-0.275947	0.306861	-0.339561	-0.299902	0.273905	-0.354726	-0.247025	0.243938	-0.353738	-0.226619	0.277588	-0.343430	-0.389497	0.093261	-0.454084	-0.244620	0.033344	-0.361193	-0.185060	0.049804	-0.425249	-0.155595	0.037002	-0.422359	-0.252824	0.745573	-0.712235	-0.223454	0.692471	-0.724484	-0.168504	0.721131	-0.743458	-0.189832	0.777152	-0.734266	-0.169862	0.468621	-0.722284	-0.128576	0.454401	-0.606002	-0.294483	0.280622	-0.696819	-0.314084	0.247625	-0.683887	-0.259797	0.218665	-0.698379	-0.246964	0.258822	-0.710185	-0.387983	0.097287	-0.604451	-0.245611	0.036751	-0.705197	-0.187058	0.049740	-0.641574	-0.157344	0.036799	-0.650261	
377	1.8850	-0.280718	1.464538	-0.502358	-0.257826	1.447355	-0.691317	-0.226990	1.444843	-0.325257	-0.129187	1.415778	-0.521730	-0.150265	0.945703	-0.401279	-0.150831	0.955622	-0.640583	-0.237061	1.012230	-0.348860	-0.230629	1.026311	-0.680579	-0.330221	0.999349	-0.482919	-0.328146	1.005447	-0.557869	-0.329082	1.000045	-0.519101	-0.246663	0.770350	-0.326231	-0.229272	0.714645	-0.316625	-0.167702	0.733598	-0.306129	-0.178949	0.793569	-0.316489	-0.191415	0.446638	-0.334160	-0.143524	0.439105	-0.447752	-0.276934	0.307483	-0.339713	-0.300786	0.274434	-0.354853	-0.247814	0.244628	-0.353747	-0.227479	0.278379	-0.343522	-0.389542	0.093397	-0.453920	-0.244619	0.033332	-0.361146	-0.185090	0.049821	-0.425197	-0.155645	0.037007	-0.422348	-0.253163	0.746727	-0.711964	-0.223885	0.693569	-0.724214	-0.168894	0.722145	-0.743213	-0.190118	0.778203	-0.734032	-0.170972	0.469570	-0.721884	-0.128992	0.454992	-0.605906	-0.295003	0.281199	-0.696433	-0.314491	0.248129	-0.683492	-0.260153	0.219326	-0.698135	-0.247461	0.259525	-0.709934	-0.387720	0.097674	-0.604244	-0.245642	0.036780	-0.705053	-0.186993	0.049730	-0.641547	-0.157309	0.036797	-0.650286	
378	1.8900	-0.280691	1.466246	-0.502444	-0.257777	1.449100	-0.691485	-0.226826	1.446815	-0.325306	-0.129153	1.417512	-0.521818	-0.150067	0.947457	-0.401297	-0.150559	0.957339	-0.640264	-0.236162	1.014289	-0.348795	-0.229670	1.028425	-0.680758	-0.330026	1.000967	-0.482876	-0.327811	1.007180	-0.558080	-0.328872	1.001678	-0.519158	-0.247131	0.772036	-0.326413	-0.229983	0.716227	-0.316912	-0.168340	0.734864	-0.306366	-0.179298	0.794929	-0.316597	-0.193080	0.448042	-0.334410	-0.145430	0.440438	-0.448206	-0.278028	0.308440	-0.339805	-0.301770	0.275273	-0.354896	-0.248689	0.245665	-0.353706	-0.228432	0.279536	-0.343596	-0.389581	0.093767	-0.453518	-0.244590	0.033312	-0.361061	-0.185140	0.049837	-0.425143	-0.155729	0.037015	-0.422364	-0.253419	0.748411	-0.711773	-0.224253	0.695178	-0.723995	-0.169177	0.723627	-0.742931	-0.190265	0.779738	-0.733778	-0.172343	0.470990	-0.721489	-0.129848	0.456051	-0.605725	-0.295609	0.282070	-0.696323	-0.314971	0.248907	-0.683402	-0.260535	0.220314	-0.698124	-0.247997	0.260576	-0.709891	-0.387478	0.098324	-0.604510	-0.245597	0.036806	-0.705045	-0.186974	0.049728	-0.641558	-0.157326	0.036790	-0.650280	
379	1.8950	-0.280696	1.468413	-0.502521	-0.257758	1.451325	-0.691624	-0.226705	1.449276	-0.325325	-0.129137	1.419735	-0.521896	-0.149783	0.949700	-0.401335	-0.150218	0.959547	-0.639961	-0.235113	1.016731	-0.348750	-0.228635	1.030860	-0.680928	-0.329729	1.003056	-0.482827	-0.327420	1.009344	-0.558249	-0.328579	1.003761	-0.519205	-0.247522	0.774221	-0.326593	-0.230655	0.718294	-0.317221	-0.168912	0.736596	-0.306709	-0.179528	0.796714	-0.316757	-0.194918	0.449882	-0.334650	-0.147771	0.442220	-0.448842	-0.279246	0.309741	-0.339884	-0.302858	0.276412	-0.354883	-0.249646	0.247073	-0.353630	-0.229517	0.281069	-0.343651	-0.389599	0.094387	-0.452925	-0.244537	0.033289	-0.360951	-0.185195	0.049859	-0.425081	-0.155836	0.037027	-0.422398	-0.253625	0.750585	-0.711641	-0.224597	0.697272	-0.723816	-0.169398	0.725547	-0.742626	-0.190318	0.781729	-0.733508	-0.173910	0.472870	-0.721118	-0.131185	0.457608	-0.605437	-0.296288	0.283233	-0.696464	-0.315510	0.249957	-0.683588	-0.260939	0.221626	-0.698325	-0.248573	0.261956	-0.710050	-0.387251	0.099262	-0.605181	-0.245485	0.036831	-0.705153	-0.186986	0.049734	-0.641606	-0.157384	0.036782	-0.650249	
380	1.9000	-0.280731	1.471010	-0.502591	-0.257771	1.454006	-0.691738	-0.226636	1.452181	-0.325392	-0.129143	1.422424	-0.521967	-0.149426	0.952418	-0.401374	-0.149822	0.962226	-0.639691	-0.233997	1.019566	-0.348735	-0.227606	1.033601	-0.681055	-0.329331	1.005604	-0.482764	-0.326996	1.011918	-0.558349	-0.328225	1.006271	-0.519232	-0.247855	0.776879	-0.326773	-0.231297	0.720834	-0.317547	-0.169432	0.738762	-0.307129	-0.179684	0.798928	-0.316984	-0.196973	0.452118	-0.334964	-0.150455	0.444419	-0.449611	-0.280601	0.311363	-0.339968	-0.304057	0.277849	-0.354832	-0.250703	0.248817	-0.353513	-0.230804	0.283003	-0.343592	-0.389556	0.095244	-0.452165	-0.244464	0.033267	-0.360829	-0.185246	0.049888	-0.425007	-0.155955	0.037046	-0.422445	-0.253818	0.753227	-0.711558	-0.224955	0.699819	-0.723667	-0.169598	0.727874	-0.742314	-0.190326	0.784149	-0.733240	-0.175616	0.475169	-0.720786	-0.133014	0.459665	-0.605033	-0.297037	0.284693	-0.696814	-0.316098	0.251282	-0.683999	-0.261371	0.223255	-0.698722	-0.249197	0.263666	-0.710381	-0.386992	0.100504	-0.606229	-0.245312	0.036854	-0.705356	-0.187013	0.049748	-0.641694	-0.157474	0.036772	-0.650196	
